<svg xmlns="http://www.w3.org/2000/svg" width="1024" height="1024" viewBox="-251.482 -251.479 1024 1024"><path fill="#00577B" d="M722.337 262.135l-218.97 209.88 218.97 209.892z"/><path fill="#0079AA" d="M700.153 240.874H262.197l218.99 209.883z"/><path fill="#0096D3" d="M700.148 210.803L481.19.916 262.197 210.803z"/><path fill="#01B0F0" d="M443.323-5.311H5.369l218.966 209.89zM722.337-230.225L503.367-20.347l218.97 209.894z"/><path fill="#27BCF3" d="M443.324-35.38L224.332-245.259 5.359-35.38z"/><path fill="#4FC9F5" d="M186.46-251.479h-437.942L-32.506-41.608z"/><path fill="#79201B" d="M-201.304 258.917L17.663 49.025-201.304-160.86z"/><path fill="#A42D26" d="M39.848 70.289l-218.975 209.894h437.956z"/><path fill="#CC382F" d="M-179.128 310.247l218.97 209.892 218.986-209.891z"/><path fill="#F0453F" d="M-201.304 331.509v419.752L17.66 541.4l-64.137-61.475zM515.674 526.369L296.7 316.474 77.714 526.369z"/><path fill="#F2625D" d="M77.709 556.437l218.985 209.857 218.971-209.859z"/><path fill="#F47F7D" d="M334.567 772.521l437.951-.002-218.977-209.857z"/></svg>