<svg xmlns="http://www.w3.org/2000/svg" width="16" height="16" viewBox="0 0 16 16" class="octicon octicon-sync" aria-hidden="true">
  <path fill-rule="evenodd" fill="#75beff" d="m 12.239585,7.4 a 4.15,4.15 0 0 1 -1.2,3.6 4.346,4.346 0 0 1 -5.4100002,0.54 l 1.17,-1.14 -4.3,-0.6 0.6,4.2 1.31,-1.26 c 2.36,1.74 5.7000002,1.57 7.8400002,-0.54 a 5.876,5.876 0 0 0 1.74,-4.46 z M 4.9595848,5 A 4.346,4.346 0 0 1 10.369585,4.46 l -1.1700002,1.14 4.3000002,0.6 -0.6,-4.2 -1.31,1.26 C 9.2295848,1.52 5.8895848,1.69 3.7395848,3.8 c -1.24,1.23 -1.8,2.85 -1.73,4.46 l 1.75,0.35 a 4.17,4.17 0 0 1 1.2,-3.61 z" />
</svg>
